<svg width="14" height="14" viewBox="0 0 14 14" fill="none" xmlns="http://www.w3.org/2000/svg">
<path d="M12.5667 12.7395C12.0705 13.1492 11.3348 13.1219 10.8705 12.6576L7 8.78712L3.12952 12.6576C2.63623 13.1509 1.83644 13.1509 1.34315 12.6576L1.26121 12.5675C0.851559 12.0713 0.878869 11.3355 1.34315 10.8712L5.21363 7.00074L1.34315 3.13027C0.849852 2.63697 0.849852 1.83718 1.34315 1.34389L1.43325 1.26196C1.92947 0.852303 2.66524 0.879614 3.12952 1.34389L7 5.21437L10.8705 1.34389C11.3638 0.850597 12.1636 0.850597 12.6569 1.34389L12.7388 1.434C13.1484 1.93022 13.1211 2.66599 12.6569 3.13027L8.78637 7.00074L12.6569 10.8712C13.1501 11.3645 13.1501 12.1643 12.6569 12.6576L12.5667 12.7395Z" fill="#752EEB"/>
</svg>
